HIERARCHY
ROOT root
{
	OFFSET 0.000000 0.000000 0.000000
	CHANNELS 6 Xposition Yposition Zposition Zrotation Yrotation Xrotation
	JOINT lhip
	{
		OFFSET 0.058581 -0.082280 -0.017664
		CHANNELS 3 Zrotation Yrotation Xrotation
		JOINT lknee
		{
			OFFSET 0.043451 -0.386469 0.008037
			CHANNELS 3 Zrotation Yrotation Xrotation
			JOINT lankle
			{
				OFFSET -0.014790 -0.426874 -0.037428
				CHANNELS 3 Zrotation Yrotation Xrotation
				JOINT ltoe
				{
					OFFSET 0.041054 -0.060286 0.122042
					CHANNELS 3 Zrotation Yrotation Xrotation
					End Site
					{
						OFFSET 0.000000 0.000000 0.000000
					}
				}
			}
		}
	}
	JOINT rhip
	{
		OFFSET -0.060310 -0.090513 -0.013543
		CHANNELS 3 Zrotation Yrotation Xrotation
		JOINT rknee
		{
			OFFSET -0.043257 -0.383688 -0.004843
			CHANNELS 3 Zrotation Yrotation Xrotation
			JOINT rankle
			{
				OFFSET 0.019056 -0.420046 -0.034562
				CHANNELS 3 Zrotation Yrotation Xrotation
				JOINT rtoe
				{
					OFFSET -0.034840 -0.062106 0.130323
					CHANNELS 3 Zrotation Yrotation Xrotation
					End Site
					{
						OFFSET 0.000000 0.000000 0.000000
					}
				}
			}
		}
	}
	JOINT lowerback
	{
		OFFSET 0.004439 0.124404 -0.038385
		CHANNELS 3 Zrotation Yrotation Xrotation
		JOINT upperback
		{
			OFFSET 0.004488 0.137956 0.026820
			CHANNELS 3 Zrotation Yrotation Xrotation
			JOINT chest
			{
				OFFSET -0.002265 0.056032 0.002855
				CHANNELS 3 Zrotation Yrotation Xrotation
				JOINT lowerneck
				{
					OFFSET -0.013390 0.211636 -0.033468
					CHANNELS 3 Zrotation Yrotation Xrotation
					JOINT upperneck
					{
						OFFSET 0.010113 0.088937 0.050410
						CHANNELS 3 Zrotation Yrotation Xrotation
						End Site
						{
							OFFSET 0.000000 0.000000 0.000000
						}
					}
				}
				JOINT lclavicle
				{
					OFFSET 0.071702 0.114000 -0.018898
					CHANNELS 3 Zrotation Yrotation Xrotation
					JOINT lshoulder
					{
						OFFSET 0.122921 0.045205 -0.019046
						CHANNELS 3 Zrotation Yrotation Xrotation
						JOINT lelbow
						{
							OFFSET 0.255332 -0.015649 -0.022946
							CHANNELS 3 Zrotation Yrotation Xrotation
							JOINT lwrist
							{
								OFFSET 0.265709 0.012698 -0.007375
								CHANNELS 3 Zrotation Yrotation Xrotation
								End Site
								{
									OFFSET 0.000000 0.000000 0.000000
								}
							}
						}
					}
				}
				JOINT rclavicle
				{
					OFFSET -0.082954 0.112472 -0.023707
					CHANNELS 3 Zrotation Yrotation Xrotation
					JOINT rshoulder
					{
						OFFSET -0.113228 0.046853 -0.008472
						CHANNELS 3 Zrotation Yrotation Xrotation
						JOINT relbow
						{
							OFFSET -0.260127 -0.014369 -0.031269
							CHANNELS 3 Zrotation Yrotation Xrotation
							JOINT rwrist
							{
								OFFSET -0.269108 0.006794 -0.006027
								CHANNELS 3 Zrotation Yrotation Xrotation
								End Site
								{
									OFFSET 0.000000 0.000000 0.000000
								}
							}
						}
					}
				}
			}
		}
	}
}
MOTION
Frames: 13
Frame Time: 0.033333
-1.936476 0.575683 1.025091 -168.338472 0.251365 96.280192 6.863653 -6.222365 -19.897731 -8.677583 -9.985727 18.761840 0.602800 5.119251 -9.759916 0.000000 -0.000000 0.000000 -3.658779 8.609497 -20.459482 6.693118 16.268401 24.861666 12.265282 10.806975 -3.701916 0.000000 -0.000000 0.000000 -2.781935 3.203193 8.455914 2.651743 0.834431 -11.796423 -1.070826 -0.637260 3.382784 8.800013 -1.304783 -10.553376 2.577268 -12.426630 2.950891 -22.371519 15.069292 -5.593082 -52.574209 -1.976507 15.543452 -1.788733 -30.135904 14.881598 -8.165656 -12.254529 -9.373719 19.966746 -11.330114 -6.973885 56.993403 2.728792 20.121372 -5.913479 34.350826 5.196342 11.927381 7.160700 -19.781705 
-1.948657 0.569649 1.026299 -172.934703 0.399297 97.368915 5.985237 -6.028301 -19.965955 -7.752244 -8.004901 17.359343 1.684769 7.125527 -9.360967 0.000000 -0.000000 0.000000 -4.953558 8.831935 -23.752276 7.697017 15.569675 26.642832 12.908109 11.602159 -2.607887 0.000000 -0.000000 0.000000 -2.585199 2.829175 7.825647 2.610190 0.948573 -11.697938 -1.111842 -0.820555 3.494362 9.136679 0.794865 -10.875143 2.935325 -10.470845 2.553177 -22.229082 14.311316 -5.570411 -51.857492 -2.527442 15.897477 -1.940729 -30.456082 14.745515 -9.171901 -12.292835 -8.360011 19.941079 -11.522173 -6.537743 56.848785 3.066550 19.903590 -6.822094 34.051434 3.294365 11.998038 7.169538 -20.532035 
-1.957962 0.564535 1.027936 -177.826051 1.160589 97.909816 6.170807 -4.748103 -20.023492 -7.428103 -5.413400 16.940917 1.983425 8.064154 -9.146796 0.000000 -0.000000 0.000000 -4.152513 8.434001 -26.689839 7.430339 14.370762 28.790466 13.221020 10.644571 -1.368492 0.000000 -0.000000 0.000000 -2.137738 2.519068 7.934964 2.583483 1.080127 -11.612883 -0.966115 -0.988398 3.406953 9.378797 2.862420 -11.024460 3.375215 -8.002636 2.539944 -22.454937 13.431711 -5.624755 -50.335071 -2.731925 15.294212 -1.989758 -31.182827 14.008148 -9.655447 -12.313379 -7.404563 20.235619 -11.270757 -6.608588 56.345496 3.028066 18.912222 -6.754979 33.459536 2.249260 12.755702 7.239817 -20.010860 
-1.967672 0.561124 1.028883 177.575545 1.676964 97.612982 5.982469 -3.659512 -19.032685 -7.071676 -3.041618 16.236350 1.886751 8.895743 -9.075738 0.000000 -0.000000 0.000000 -3.330143 8.249425 -28.148335 5.982405 10.426857 30.137617 12.887129 7.632101 -1.430103 0.000000 -0.000000 0.000000 -1.700296 2.140205 8.955741 2.384525 1.151549 -11.697329 -0.890597 -1.091213 3.344616 9.514533 4.705688 -10.730927 3.805971 -5.469054 2.587646 -22.305340 12.590474 -5.469756 -49.184867 -3.252137 14.337955 -1.489610 -31.428453 12.741867 -9.520132 -12.461021 -6.734120 20.246323 -10.988472 -6.597896 56.309162 2.636655 18.536373 -7.180461 32.984424 1.733602 12.882835 7.051104 -19.140518 
-1.976258 0.558114 1.029605 173.233518 1.753661 97.244282 5.350969 -2.541763 -17.788402 -6.776126 -1.058143 15.140155 2.036156 9.729477 -8.925169 0.000000 -0.000000 0.000000 -2.841074 6.948912 -28.936780 4.752784 5.684598 30.657694 11.901372 4.536952 -2.539852 0.000000 -0.000000 0.000000 -1.752834 1.821470 9.983459 2.026746 1.133618 -12.121648 -0.737910 -1.253079 3.478233 9.403741 6.398847 -10.084314 4.254833 -2.849515 2.678758 -21.668720 11.852506 -5.175411 -48.189846 -4.005860 13.156943 -0.830683 -31.195565 11.445527 -9.175937 -12.468071 -6.208037 19.815213 -10.842031 -6.399796 56.713181 2.032437 18.193219 -7.333643 32.550115 1.573277 13.118548 6.985967 -18.588016 
-1.983809 0.555538 1.030149 169.045678 1.622742 96.846090 4.441403 -1.432375 -16.371935 -6.381344 0.712335 13.718344 2.185527 10.626252 -8.675630 0.000000 -0.000000 0.000000 -2.605940 5.731557 -29.050977 3.508228 1.604226 30.617024 9.674182 0.686587 -5.310708 0.000000 -0.000000 0.000000 -1.807183 1.357603 10.718510 1.587713 0.983369 -12.353090 -0.730319 -1.400287 3.660678 9.285733 8.089016 -9.291984 4.460288 0.008353 2.716684 -21.313300 11.151713 -4.990849 -46.651613 -4.663393 11.801370 -0.224178 -30.653545 10.032888 -7.881489 -12.667302 -6.110747 19.584035 -10.623080 -6.086686 56.680865 1.594175 17.991017 -7.189385 31.954694 1.462232 11.499844 7.036521 -17.656989 
-1.990482 0.553374 1.031095 164.710866 1.596247 96.514743 3.556511 -0.557221 -14.950646 -5.668774 2.551130 12.140691 2.218360 11.707491 -8.374702 0.000000 -0.000000 0.000000 -2.245572 4.714851 -28.959938 1.917735 -2.256740 30.664950 6.942749 -3.467978 -7.722293 0.000000 -0.000000 0.000000 -1.652716 0.998805 11.293985 1.103041 0.987630 -12.589302 -0.761881 -1.515432 3.733710 8.978337 9.662907 -8.567857 4.562637 2.959996 2.830053 -21.219636 10.564757 -4.893981 -44.980901 -5.186037 10.219239 0.780058 -29.914899 8.302492 -8.660106 -12.760738 -5.606715 19.366921 -10.451469 -5.718655 56.645534 0.985890 17.681702 -7.124960 31.190729 1.699725 12.579635 7.262508 -17.141921 
-1.997122 0.551621 1.032228 160.132075 1.538057 96.430735 2.838504 0.411000 -14.011984 -5.223612 4.844215 10.778837 2.563418 12.715586 -8.086259 0.000000 -0.000000 0.000000 -2.410411 3.236376 -29.230492 1.362186 -5.717878 31.107648 5.439134 -5.776431 -8.213582 0.000000 -0.000000 0.000000 -1.416248 0.879116 11.447402 0.643480 1.142876 -12.626313 -0.936330 -1.406100 3.876397 8.620800 11.159727 -8.187895 4.434689 5.539744 2.753203 -21.715895 10.267362 -5.193860 -42.884737 -5.874930 9.036703 1.735263 -29.241625 6.039148 -9.285289 -12.850583 -5.251449 20.301418 -10.710516 -5.939012 55.799510 0.242206 17.649908 -7.403348 30.335811 1.589515 13.624951 7.408060 -16.069286 
-2.002680 0.549346 1.033771 155.746237 1.670361 96.190326 2.335407 1.495135 -12.939483 -4.886306 6.934782 9.524464 2.696973 13.663405 -7.875166 0.000000 -0.000000 0.000000 -2.425285 1.871237 -28.989413 0.914942 -8.922366 31.563351 4.612204 -7.764438 -7.847139 0.000000 -0.000000 0.000000 -1.056386 0.635830 11.871802 0.335226 1.243862 -12.783479 -0.898004 -1.353978 3.791826 7.777647 12.653587 -7.854205 4.336231 8.237302 2.645980 -21.233140 10.008951 -4.751042 -42.200896 -5.918800 7.961268 2.366385 -29.367514 5.607917 -8.250289 -12.988057 -4.248276 19.451114 -10.866251 -5.390292 56.141094 -0.041155 17.254027 -7.310039 29.048302 1.950352 13.629513 7.403242 -14.995260 
-2.007734 0.547943 1.034620 151.356098 1.639064 96.100895 1.769393 2.442118 -12.070148 -4.735355 9.154167 8.227704 2.930620 14.615527 -7.574350 0.000000 -0.000000 0.000000 -2.814885 0.708403 -28.933707 0.523652 -11.776966 32.146214 3.777570 -9.285514 -7.931868 0.000000 -0.000000 0.000000 -0.834193 0.488352 11.928898 -0.045205 1.361617 -12.778205 -0.902414 -1.456718 3.807015 7.384886 14.071141 -7.756244 4.166717 10.983243 2.675388 -21.017569 10.036019 -4.648262 -41.777017 -5.937419 7.075711 3.770155 -29.729187 3.867271 -8.647096 -12.866177 -4.456757 19.452099 -10.712631 -4.896672 55.660259 -0.093931 16.916185 -7.292045 27.514638 1.528821 15.380163 7.148709 -14.902466 
-2.012066 0.546525 1.034900 147.152667 1.688222 96.056547 1.215091 3.557725 -11.408887 -4.468821 11.097424 7.125327 3.250224 15.561825 -7.362578 0.000000 -0.000000 0.000000 -3.162750 -0.486072 -28.910117 0.225626 -14.304901 32.683193 2.908538 -10.941405 -8.265477 0.000000 -0.000000 0.000000 -0.727682 0.144234 11.739335 -0.184257 1.362332 -12.555194 -0.587096 -1.450181 3.857638 6.877154 15.574813 -7.556043 3.776546 13.796135 2.577850 -21.114141 10.137790 -4.535586 -41.485913 -5.989988 6.305189 4.408298 -30.245021 2.629998 -8.073505 -12.891902 -5.188945 19.340466 -10.537827 -4.526684 54.774799 0.322877 16.626303 -7.038934 25.985178 1.099318 15.744779 7.046476 -13.976056 
-2.014494 0.545795 1.034873 142.964198 1.691934 96.080298 0.546287 4.532571 -10.682063 -3.980204 13.059549 5.866672 3.435480 16.499251 -7.230115 0.000000 -0.000000 0.000000 -3.501571 -1.940392 -28.925441 -0.355124 -16.992414 33.290666 2.061848 -12.491083 -9.124999 0.000000 -0.000000 0.000000 -0.344658 -0.103027 12.050376 -0.422079 1.441656 -13.166229 -0.559787 -1.365741 3.766490 6.482407 17.173814 -7.440244 3.430420 15.832336 3.327984 -20.963130 10.454420 -4.423311 -41.497373 -6.018784 5.789100 4.513677 -30.665227 2.259538 -7.920648 -13.211827 -5.831202 19.023113 -11.226226 -4.458282 54.310722 0.514860 16.377759 -6.835745 24.804013 1.320901 16.334566 7.070730 -13.176109 
-2.016683 0.545443 1.035106 138.652311 1.582547 96.118832 -0.209732 5.587300 -10.009624 -3.644875 14.979292 4.619421 3.610418 17.520209 -6.939264 0.000000 -0.000000 0.000000 -3.800849 -3.393882 -28.807514 -0.999798 -19.667063 33.455078 0.727589 -14.508940 -11.129056 0.000000 -0.000000 0.000000 0.219934 -0.402598 12.459726 -0.836063 1.371226 -14.047162 -0.777161 -1.037525 3.682101 6.422857 17.916256 -7.279095 3.533120 17.023292 5.106222 -20.961416 10.834537 -4.465329 -41.488489 -5.944409 5.522949 4.183002 -31.465337 2.767158 -6.623370 -13.683146 -6.920911 18.827685 -11.381758 -4.083712 53.913996 0.690255 15.864431 -6.844218 23.700300 1.083835 15.505171 7.261164 -12.379463 
